<svg width="16" height="17" viewBox="0 0 16 17" fill="none" xmlns="http://www.w3.org/2000/svg">
<g clip-path="url(#clip0_26478_6179)">
<path d="M11.9598 12.4603C10.8202 13.329 9.43258 13.8103 7.99984 13.8337C3.33317 13.8337 0.666504 8.50034 0.666504 8.50034C1.49576 6.95494 2.64593 5.60475 4.03984 4.54034M6.59984 3.32701C7.05873 3.2196 7.52855 3.1659 7.99984 3.16701C12.6665 3.16701 15.3332 8.50034 15.3332 8.50034C14.9285 9.25741 14.4459 9.97017 13.8932 10.627M9.41317 9.91368C9.23007 10.1102 9.00927 10.2678 8.76394 10.3771C8.51861 10.4864 8.25377 10.5452 7.98523 10.5499C7.71669 10.5547 7.44995 10.5053 7.20091 10.4047C6.95188 10.3041 6.72565 10.1544 6.53573 9.96444C6.34582 9.77453 6.1961 9.5483 6.09551 9.29927C5.99492 9.05023 5.94552 8.78349 5.95026 8.51495C5.955 8.24641 6.01378 7.98157 6.12309 7.73624C6.2324 7.49091 6.39001 7.27011 6.5865 7.08701" stroke="#0F0F11" stroke-linecap="round" stroke-linejoin="round"/>
<path d="M0.666504 1.16699L15.3332 15.8337" stroke="#0F0F11" stroke-linecap="round" stroke-linejoin="round"/>
</g>
<defs>
<clipPath id="clip0_26478_6179">
<rect width="16" height="16" fill="white" transform="translate(0 0.5)"/>
</clipPath>
</defs>
</svg>
